<?xml version="1.0" standalone="no"?>
<!DOCTYPE svg PUBLIC "-//W3C//DTD SVG 20010904//EN"
 "http://www.w3.org/TR/2001/REC-SVG-20010904/DTD/svg10.dtd">
<svg version="1.0" xmlns="http://www.w3.org/2000/svg"
 width="450.000000pt" height="600.000000pt" viewBox="0 0 450.000000 600.000000"
 preserveAspectRatio="xMidYMid meet">
<metadata>
Created by potrace 1.16, written by Peter Selinger 2001-2019
</metadata>
<g transform="translate(0.000000,600.000000) scale(0.100000,-0.100000)"
fill="#000000" stroke="none">
<path d="M2005 5989 c-962 -101 -1770 -835 -1959 -1779 -68 -340 -60 -703 23
-1026 96 -376 291 -721 565 -1003 317 -325 697 -536 1141 -635 108 -24 297
-46 391 -46 l84 0 0 -752 0 -751 129 6 c912 47 1716 660 2006 1530 143 430
154 914 29 1344 -104 360 -287 673 -548 942 -317 325 -697 536 -1141 635 -108
24 -297 46 -391 46 l-84 0 0 750 0 750 -82 -1 c-46 -1 -119 -5 -163 -10z m245
-2239 l0 -740 -52 0 c-123 0 -294 67 -408 159 -132 106 -230 262 -265 424 -25
112 -17 274 18 382 64 196 220 370 405 452 79 35 187 62 250 62 l52 1 0 -740z
m169 -775 c151 -36 311 -138 412 -265 186 -231 211 -572 62 -830 -47 -80 -188
-223 -265 -269 -83 -48 -217 -92 -304 -98 l-74 -6 0 742 0 741 53 0 c28 0 81
-7 116 -15z"/>
</g>
</svg>
