<?xml version="1.0" encoding="UTF-8"?>
<svg version="1.1" xmlns="http://www.w3.org/2000/svg" width="460" height="610">
<path d="M0 0 C0 49.5 0 99 0 150 C4.29 150 8.58 150 13 150 C16.62119863 150.29741833 20.15756541 150.64042244 23.75 151.125 C25.20756714 151.32077637 25.20756714 151.32077637 26.69458008 151.52050781 C72.05070027 158.05010967 113.75936583 177.71830754 148 208 C148.53431641 208.47115234 149.06863281 208.94230469 149.61914062 209.42773438 C155.84529761 214.94620241 161.66842768 220.59981513 167 227 C167.78375 227.87269531 168.5675 228.74539062 169.375 229.64453125 C202.31846079 266.62713083 223.7588863 318.36013238 224.23828125 368.1171875 C224.2480751 368.96376923 224.25786896 369.81035095 224.26795959 370.68258667 C224.84978742 434.08118271 205.47555369 492.71854564 161 539 C160.43265137 539.59458008 159.86530273 540.18916016 159.28076172 540.80175781 C150.7549051 549.69212403 141.95468008 557.7409555 132 565 C130.43185547 566.15048828 130.43185547 566.15048828 128.83203125 567.32421875 C96.59360342 590.27157173 60.19598776 603.96123282 21 609 C19.57494141 609.19722656 19.57494141 609.19722656 18.12109375 609.3984375 C8.45687656 610.51761132 -1.29141607 610 -11 610 C-11 560.5 -11 511 -11 460 C-15.29 460 -19.58 460 -24 460 C-27.6821331 459.67992765 -31.2838399 459.31460928 -34.9375 458.8125 C-35.9176709 458.6794043 -36.8978418 458.54630859 -37.90771484 458.40917969 C-95.97688353 450.09631551 -149.53004611 420.17467043 -186 374 C-186.78117187 373.04738281 -187.56234375 372.09476562 -188.3671875 371.11328125 C-225.3368503 324.98978821 -240.96491912 263.28552282 -235.0546875 204.95556641 C-230.39028361 164.9976779 -216.08804576 126.35346698 -192 94 C-191.34330322 93.11006348 -191.34330322 93.11006348 -190.67333984 92.20214844 C-167.87101679 61.53433344 -137.81159266 36.86090316 -103 21 C-102.28440918 20.6704834 -101.56881836 20.3409668 -100.83154297 20.00146484 C-68.30984109 5.18924994 -35.64530171 0 0 0 Z M-162.75 76.5 C-168.2293062 82.03111231 -173.26525606 87.81348789 -178 94 C-178.43022461 94.55913086 -178.86044922 95.11826172 -179.30371094 95.69433594 C-214.50921651 141.69386452 -230.92417082 199.59832106 -223.875 257.3125 C-218.50299458 296.77442537 -203.4824604 335.16340495 -178 366 C-177.17371094 367.02867187 -176.34742188 368.05734375 -175.49609375 369.1171875 C-164.67516157 382.41876734 -152.52412407 394.58341831 -138.70019531 404.74853516 C-137.00363496 405.99732441 -135.32604025 407.26887103 -133.6484375 408.54296875 C-124.61482989 415.30218981 -115.00155787 420.80415908 -105 426 C-104.31599121 426.35835938 -103.63198242 426.71671875 -102.92724609 427.0859375 C-74.63345344 441.7175756 -42.70910872 449 -11 449 C-11 403.13 -11 357.26 -11 310 C-17.6 308.68 -24.2 307.36 -31 306 C-53.15010589 297.99618023 -68.39257518 283.62294529 -78.8125 262.6875 C-87.23766549 242.64847791 -87.70644917 220.08437709 -79.75 199.8125 C-70.43393658 179.25670225 -56.82409317 165.00256379 -35.99609375 156.05859375 C-27.88777801 153.193726 -19.46884207 151.41147368 -11 150 C-11 104.13 -11 58.26 -11 11 C-68.52527194 11 -122.25436462 36.38145187 -162.75 76.5 Z M-53 179 C-53.63679688 179.55429688 -54.27359375 180.10859375 -54.9296875 180.6796875 C-66.7483967 191.65795515 -74.42877194 208.6640272 -75.3203125 224.6796875 C-75.96243675 243.99366818 -70.9769902 261.28382554 -58 276 C-57.34386719 276.75023437 -56.68773437 277.50046875 -56.01171875 278.2734375 C-46.54822826 288.41165583 -35.09579349 294.02174722 -22 298 C-21.35160156 298.20753906 -20.70320313 298.41507813 -20.03515625 298.62890625 C-17.06979213 299.16961564 -14.01425795 299 -11 299 C-11 253.46 -11 207.92 -11 161 C-26.98354484 161 -41.27520121 168.58249584 -53 179 Z M0 161 C0 206.87 0 252.74 0 300 C5.28 300.99 10.56 301.98 16 303 C38.3759629 310.59551034 54.58684971 322.73770622 65.8125 343.8125 C75.04864507 363.37769826 76.70315646 385.52125493 69.8125 406.125 C61.55004265 427.49176289 47.92799068 443.3732306 27 453 C18.21580716 456.50216667 9.3199736 458.30545935 0 460 C0 505.87 0 551.74 0 599 C7.66325523 599 14.69313967 598.93256035 22.1875 597.875 C23.11602783 597.74448242 24.04455566 597.61396484 25.0012207 597.47949219 C57.43967058 592.61385956 90.23708525 581.3374111 117 562 C117.64227539 561.54125488 118.28455078 561.08250977 118.94628906 560.60986328 C126.90560303 554.89205199 134.46841197 548.94178189 141.6171875 542.23046875 C143.73601127 540.24711076 145.90477551 538.3676006 148.125 536.5 C188.05109545 501.59503623 209.83259782 445.54367394 213.75 393.8125 C213.85352625 391.54249762 213.93817163 389.27152058 214 387 C214.03996094 385.94167969 214.07992187 384.88335937 214.12109375 383.79296875 C215.3327734 323.70791302 190.81007106 267.55569669 149.578125 224.61425781 C131.02696649 205.63835124 108.98735388 191.1881788 85 180 C83.89914062 179.47921875 82.79828125 178.9584375 81.6640625 178.421875 C55.96629197 166.82430635 28.11074316 161 0 161 Z M0 311 C0 356.54 0 402.08 0 449 C18.29049635 447.17095037 34.49212814 440.14907345 46.703125 425.953125 C59.05137101 410.85701736 65.24722921 393.592837 64 374 C61.378848 354.51679143 52.91605026 337.60519143 37.5546875 324.9921875 C26.48465843 316.97595955 13.86135692 311 0 311 Z " fill="#000000" transform="translate(236,0)"/>
</svg>
