<?xml version="1.0" standalone="no"?>
<!DOCTYPE svg PUBLIC "-//W3C//DTD SVG 20010904//EN"
 "http://www.w3.org/TR/2001/REC-SVG-20010904/DTD/svg10.dtd">
<svg version="1.0" xmlns="http://www.w3.org/2000/svg"
 width="514.000000pt" height="138.000000pt" viewBox="0 0 514.000000 138.000000"
 preserveAspectRatio="xMidYMid meet">
<metadata>
Created by potrace 1.16, written by Peter Selinger 2001-2019
</metadata>
<g transform="translate(0.000000,138.000000) scale(0.100000,-0.100000)"
fill="#000000" stroke="none">
<path d="M166 1370 c-51 -16 -96 -54 -121 -104 -29 -57 -32 -111 -10 -164 31
-74 73 -102 220 -148 128 -40 160 -79 115 -137 -55 -70 -195 -33 -245 64 l-15
28 -51 -21 c-28 -12 -53 -27 -56 -34 -6 -17 30 -84 64 -115 49 -46 112 -72
189 -77 159 -10 264 72 264 207 0 59 -15 94 -57 132 -38 36 -72 52 -176 83
-95 29 -127 52 -127 90 0 38 10 56 41 71 71 37 152 6 204 -79 9 -14 15 -14 63
9 28 13 52 30 52 38 0 21 -54 91 -88 116 -66 46 -185 65 -266 41z"/>
<path d="M1115 1358 c-15 -41 -235 -680 -235 -684 0 -2 34 -4 75 -4 l74 0 66
203 c36 111 76 231 89 267 l24 65 87 -267 87 -268 74 0 c41 0 74 3 73 8 0 4
-53 160 -118 347 l-118 340 -86 3 c-64 2 -89 -1 -92 -10z"/>
<path d="M1890 1020 l0 -350 65 0 65 0 2 231 3 231 100 -136 c70 -96 105 -136
117 -134 9 2 62 63 118 137 l100 134 0 -231 0 -232 65 0 65 0 0 350 0 350 -64
0 -64 0 -102 -142 c-56 -79 -106 -147 -111 -152 -4 -5 -58 59 -119 143 l-112
151 -64 0 -64 0 0 -350z"/>
<path d="M3080 1020 l0 -350 70 0 70 0 0 350 0 350 -70 0 -70 0 0 -350z"/>
<path d="M3610 1363 c0 -5 52 -94 115 -198 l115 -189 0 -153 0 -153 70 0 70 0
0 156 0 156 112 186 c61 103 113 190 115 195 2 4 -31 7 -75 7 l-78 0 -70 -120
c-38 -66 -73 -118 -77 -117 -4 1 -38 54 -75 117 l-68 115 -77 3 c-42 2 -77 -1
-77 -5z"/>
<path d="M4616 1032 c-64 -186 -116 -343 -116 -350 0 -9 19 -12 72 -10 l72 3
85 258 c47 141 88 257 91 257 3 0 44 -116 91 -257 l85 -258 72 -3 c49 -2 72 1
72 8 0 7 -53 164 -117 351 l-117 339 -86 0 -87 0 -117 -338z"/>
<path d="M1141 314 c-26 -22 -31 -33 -31 -70 0 -56 26 -83 103 -107 59 -19 75
-38 51 -62 -24 -23 -53 -18 -86 16 -27 26 -35 29 -55 20 -27 -12 -29 -28 -7
-59 53 -76 198 -67 224 14 22 65 -4 103 -90 132 -61 21 -81 42 -61 66 19 23
45 20 79 -9 26 -22 34 -24 56 -14 24 11 24 13 10 40 -32 62 -137 80 -193 33z"/>
<path d="M1580 305 c0 -34 1 -35 40 -35 l40 0 0 -135 0 -135 35 0 35 0 0 135
0 135 40 0 c39 0 40 1 40 35 l0 35 -115 0 -115 0 0 -35z"/>
<path d="M2052 205 l3 -135 33 -32 c30 -30 37 -33 97 -33 60 0 67 3 97 33 l33
32 3 135 4 135 -36 0 -36 0 0 -115 c0 -110 -1 -117 -25 -140 -31 -31 -49 -31
-80 0 -24 23 -25 30 -25 140 l0 115 -36 0 -36 0 4 -135z"/>
<path d="M2580 170 l0 -173 83 5 c142 8 200 56 200 168 0 113 -54 160 -194
168 l-89 5 0 -173z m175 84 c13 -9 29 -31 35 -49 23 -70 -23 -135 -96 -135
l-44 0 0 100 0 100 40 0 c23 0 52 -7 65 -16z"/>
<path d="M3120 170 l0 -170 35 0 35 0 0 170 0 170 -35 0 -35 0 0 -170z"/>
<path d="M3530 320 c-56 -34 -74 -66 -78 -140 -3 -55 0 -70 20 -99 41 -61 71
-76 148 -76 76 0 107 16 148 75 16 25 22 47 22 90 0 63 -22 106 -73 144 -41
30 -141 33 -187 6z m163 -80 c59 -66 15 -175 -71 -175 -110 0 -145 147 -47
200 40 21 84 12 118 -25z"/>
</g>
</svg>
