<?xml version="1.0" encoding="UTF-8"?>
<svg version="1.1" xmlns="http://www.w3.org/2000/svg" width="450" height="600">
<path d="M0 0 C0 49.5 0 99 0 150 C6.6 150 13.2 150 20 150 C24.52077005 150.4257789 28.85322334 150.89816369 33.3125 151.625 C35.01768799 151.89449463 35.01768799 151.89449463 36.75732422 152.16943359 C70.66689843 157.78716854 103.10735846 170.78887154 131 191 C131.56122559 191.40573242 132.12245117 191.81146484 132.70068359 192.22949219 C140.97193574 198.2706442 148.60719358 204.9143924 156 212 C156.58539551 212.55284668 157.17079102 213.10569336 157.77392578 213.67529297 C167.63992248 223.027084 176.09356374 232.95068215 184 244 C184.43618652 244.59683594 184.87237305 245.19367188 185.32177734 245.80859375 C206.86464626 275.43948713 219.25760494 310.89051789 224 347 C224.185625 348.30453125 224.37125 349.6090625 224.5625 350.953125 C230.7913607 409.32032377 213.703428 469.23242108 177 515 C176.20722656 515.99644531 175.41445313 516.99289062 174.59765625 518.01953125 C136.99055066 564.32958388 82.06155502 593.21469991 22.8828125 599.60546875 C15.27117303 600.11594391 7.62873779 600 0 600 C0 550.5 0 501 0 450 C-6.6 450 -13.2 450 -20 450 C-24.52077005 449.5742211 -28.85322334 449.10183631 -33.3125 448.375 C-34.44929199 448.19533691 -35.58608398 448.01567383 -36.75732422 447.83056641 C-70.66689843 442.21283146 -103.10735846 429.21112846 -131 409 C-131.56122559 408.59426758 -132.12245117 408.18853516 -132.70068359 407.77050781 C-140.97193574 401.7293558 -148.60719358 395.0856076 -156 388 C-156.58539551 387.44715332 -157.17079102 386.89430664 -157.77392578 386.32470703 C-167.63992248 376.972916 -176.09356374 367.04931785 -184 356 C-184.43618652 355.40316406 -184.87237305 354.80632812 -185.32177734 354.19140625 C-218.63791089 308.36711029 -231.66131603 247.87930507 -223.48095703 192.0612793 C-216.94396888 152.72739093 -202.03897059 116.22250768 -177 85 C-176.20722656 84.00355469 -175.41445312 83.00710937 -174.59765625 81.98046875 C-136.99055066 35.67041612 -82.06155502 6.78530009 -22.8828125 0.39453125 C-15.27117303 -0.11594391 -7.62873779 0 0 0 Z M-49 169 C-50.23169922 170.09248047 -50.23169922 170.09248047 -51.48828125 171.20703125 C-64.61511884 183.53709569 -73.54165643 200.9936156 -74.3359375 219.1640625 C-74.69633293 240.72119335 -69.29906425 259.90838742 -54.75 276.25390625 C-39.42177012 291.56036308 -21.83406946 299 0 299 C0 250.16 0 201.32 0 151 C-18.58930921 151 -35.01384799 156.44048645 -49 169 Z M0 301 C0 349.84 0 398.68 0 449 C18.58930921 449 35.01384799 443.55951355 49 431 C49.82113281 430.27167969 50.64226562 429.54335938 51.48828125 428.79296875 C64.61511884 416.46290431 73.54165643 399.0063844 74.3359375 380.8359375 C74.69633293 359.27880665 69.29906425 340.09161258 54.75 323.74609375 C39.42177012 308.43963692 21.83406946 301 0 301 Z " fill="#FFFFFF" transform="translate(225,0)"/>
</svg>
