<?xml version="1.0" encoding="UTF-8"?>
<svg version="1.1" xmlns="http://www.w3.org/2000/svg" width="514" height="138">
<path d="M0 0 C13 0 13 0 16.03515625 2.28125 C16.70417969 3.3434375 17.37320313 4.405625 18.0625 5.5 C18.85153417 6.68187886 19.64196908 7.86282344 20.43359375 9.04296875 C20.83819824 9.6776709 21.24280273 10.31237305 21.65966797 10.96630859 C24.13067975 14.71558512 26.90412013 18.24287224 29.625 21.8125 C30.6604131 23.19284241 31.69440344 24.57425392 32.7265625 25.95703125 C33.47679687 26.96121094 34.22703125 27.96539063 35 29 C38.97636163 25.38512579 41.84059755 21.14491539 44.875 16.75 C46.40127836 14.5523153 47.92963783 12.35944384 49.49511719 10.18945312 C51.03922764 8.02529443 51.03922764 8.02529443 52.26269531 5.66992188 C53.5703125 3.453125 53.5703125 3.453125 57 0 C61.29 0 65.58 0 70 0 C70 23.1 70 46.2 70 70 C65.71 70 61.42 70 57 70 C56.67 55.48 56.34 40.96 56 26 C53.793125 28.825625 51.58625 31.65125 49.3125 34.5625 C48.62712158 35.43849854 47.94174316 36.31449707 47.2355957 37.21704102 C43.71154063 41.73892301 40.29401491 46.30776079 37 51 C34.08551836 50.66689873 32.44339907 50.43631808 30.31835938 48.34521484 C29.83173828 47.64090332 29.34511719 46.9365918 28.84375 46.2109375 C28.29589844 45.43363281 27.74804688 44.65632813 27.18359375 43.85546875 C26.62800781 43.03691406 26.07242188 42.21835937 25.5 41.375 C24.94441406 40.57964844 24.38882813 39.78429688 23.81640625 38.96484375 C22.76494228 37.45815773 21.71927109 35.94739845 20.68164062 34.43115234 C18.4899256 31.26258408 16.23934712 28.13508597 14 25 C13.67 39.85 13.34 54.7 13 70 C8.71 70 4.42 70 0 70 C0 46.9 0 23.8 0 0 Z " fill="#000000" transform="translate(189,1)"/>
<path d="M0 0 C4.20163992 3.00117137 7.95527994 6.14378986 10 11 C9.87890625 13.0078125 9.87890625 13.0078125 9 15 C6.71484375 16.265625 6.71484375 16.265625 3.9375 17.25 C2.55884766 17.75273438 2.55884766 17.75273438 1.15234375 18.265625 C0.08693359 18.62914062 0.08693359 18.62914062 -1 19 C-1.70125 17.906875 -2.4025 16.81375 -3.125 15.6875 C-5.67008783 12.1657258 -7.78837859 10.4038738 -12 9 C-16.28536133 8.4860882 -20.37213451 8.38793685 -24 11 C-25.39935013 13.79870027 -25.25265405 15.90498792 -25 19 C-22.88546249 21.71129864 -20.77086758 22.64566389 -17.54296875 23.68359375 C-16.24456055 24.11575195 -16.24456055 24.11575195 -14.91992188 24.55664062 C-13.11006355 25.14009031 -11.3001682 25.72342517 -9.49023438 26.30664062 C-1.37280308 29.00843948 3.78102495 32.14077564 9 39 C11.3433272 43.68665441 10.69104 50.44814746 9.3515625 55.39453125 C6.63679226 61.46215876 2.27350113 64.70518897 -3.8046875 67.109375 C-12.02614409 69.40093014 -20.99662001 68.94504784 -28.74609375 65.33203125 C-34.6360645 61.85112999 -39.77848762 57.66453714 -42 51 C-41.875 48.96484375 -41.875 48.96484375 -41 47 C-38.71484375 45.734375 -38.71484375 45.734375 -35.9375 44.75 C-35.01839844 44.41484375 -34.09929688 44.0796875 -33.15234375 43.734375 C-32.44207031 43.49203125 -31.73179688 43.2496875 -31 43 C-30.41992188 43.81404297 -30.41992188 43.81404297 -29.828125 44.64453125 C-29.30734375 45.35996094 -28.7865625 46.07539062 -28.25 46.8125 C-27.73953125 47.52019531 -27.2290625 48.22789063 -26.703125 48.95703125 C-24.11758396 52.05849447 -21.83221332 53.72259556 -18 55 C-13.78835161 55.27171925 -10.99768161 55.38209083 -7.0625 53.875 C-4.77278393 52.08665531 -4.77278393 52.08665531 -3.9375 49.0625 C-3.7146023 46.0158536 -3.7146023 46.0158536 -5.38671875 44.02734375 C-9.1837372 41.08167473 -13.3282007 39.93686731 -17.875 38.5 C-27.21183954 35.52362757 -34.24930817 32.75124529 -39.25 23.75 C-41.2243521 16.51070897 -40.215342 10.80830458 -36.62890625 4.23828125 C-28.60190187 -6.79163125 -10.68794014 -6.90572673 0 0 Z " fill="#000000" transform="translate(42,4)"/>
<path d="M0 0 C5.94 0 11.88 0 18 0 C18.55461914 1.6085083 19.10923828 3.2170166 19.68066406 4.87426758 C21.5278939 10.23090505 23.37597934 15.58724683 25.22462845 20.94339466 C26.34375539 24.18597442 27.46255481 27.42866636 28.58056641 30.67163086 C29.87040227 34.41294886 31.16173344 38.15374993 32.453125 41.89453125 C33.04556 43.61395683 33.04556 43.61395683 33.64996338 45.36811829 C34.03005554 46.4684288 34.41014771 47.56873932 34.80175781 48.70239258 C35.16579712 49.75673492 35.52983643 50.81107727 35.90490723 51.89736938 C37.29825507 55.84502001 38.77856055 59.75800548 40.28485107 63.66386414 C41 66 41 66 41 70 C36.38 70 31.76 70 27 70 C23.24680248 61.07222074 20.19783831 51.93197827 17.14404297 42.74780273 C16.24346837 40.04288192 15.33485815 37.34074542 14.42578125 34.63867188 C13.85107692 32.91682866 13.27684097 31.19482903 12.703125 29.47265625 C12.29540863 28.26332176 12.29540863 28.26332176 11.87945557 27.02955627 C10.84942231 23.91351905 10 21.30470527 10 18 C9.34 18 8.68 18 8 18 C7.73646729 19.27810547 7.47293457 20.55621094 7.20141602 21.87304688 C6.04977306 27.04462083 4.46750637 32.01392946 2.77734375 37.03125 C2.47180069 37.94837769 2.16625763 38.86550537 1.85145569 39.8104248 C1.21066937 41.73045959 0.56769138 43.64976422 -0.07739258 45.56835938 C-1.06842657 48.51763724 -2.0512951 51.46954782 -3.03320312 54.421875 C-3.65837685 56.29182631 -4.28401115 58.16162372 -4.91015625 60.03125 C-5.20495377 60.91655396 -5.49975128 61.80185791 -5.80348206 62.71398926 C-6.07724167 63.52573608 -6.35100128 64.33748291 -6.63305664 65.17382812 C-6.87351212 65.89058716 -7.11396759 66.60734619 -7.36170959 67.3458252 C-8 69 -8 69 -9 70 C-11.35313555 70.07271741 -13.70833668 70.08370868 -16.0625 70.0625 C-17.99802734 70.04896484 -17.99802734 70.04896484 -19.97265625 70.03515625 C-20.97167969 70.02355469 -21.97070312 70.01195313 -23 70 C-22.4356402 65.31126137 -21.51909803 61.09709662 -19.97460938 56.63745117 C-19.55747681 55.4231694 -19.14034424 54.20888763 -18.71057129 52.95780945 C-18.25514025 51.65280109 -17.79952892 50.34785565 -17.34375 49.04296875 C-16.87623768 47.69030645 -16.40924563 46.33746423 -15.94274902 44.98445129 C-14.96806804 42.16156146 -13.98936806 39.34011211 -13.00732422 36.51977539 C-11.7477209 32.90228539 -10.49483671 29.2825165 -9.24449921 25.66181469 C-8.05049328 22.20481292 -6.85365103 18.74879578 -5.65625 15.29296875 C-5.42789963 14.63345907 -5.19954926 13.97394939 -4.96427917 13.29445457 C-4.31952661 11.43429269 -3.67251377 9.5749147 -3.02539062 7.71557617 C-2.6575647 6.65747238 -2.28973877 5.59936859 -1.9107666 4.50920105 C-1 2 -1 2 0 0 Z " fill="#000000" transform="translate(473,1)"/>
<path d="M0 0 C1.58206057 0.00667536 3.16410534 0.0186375 4.74609375 0.03515625 C5.55240234 0.03966797 6.35871094 0.04417969 7.18945312 0.04882812 C9.18753131 0.06065107 11.18557158 0.07858711 13.18359375 0.09765625 C16.28749768 7.62089951 19.04160027 15.23742447 21.6953125 22.9296875 C22.10900589 24.12446213 22.52269928 25.31923676 22.94892883 26.55021667 C23.81654429 29.05837346 24.68314618 31.56685314 25.5480957 34.07592773 C26.65374779 37.28258483 27.76458689 40.48741786 28.87683392 43.69179249 C29.94436896 46.77004006 31.00708762 49.84994906 32.0703125 52.9296875 C32.4682048 54.07556839 32.86609711 55.22144928 33.27604675 56.40205383 C33.64345474 57.47054062 34.01086273 58.5390274 34.3894043 59.63989258 C34.71265182 60.57569656 35.03589935 61.51150055 35.36894226 62.47566223 C36.18359375 65.09765625 36.18359375 65.09765625 37.18359375 70.09765625 C32.23359375 70.09765625 27.28359375 70.09765625 22.18359375 70.09765625 C16.51692708 53.09765625 10.85026042 36.09765625 5.18359375 19.09765625 C0.64777791 29.2310236 -2.71044978 39.655486 -6.06640625 50.22265625 C-6.87695089 52.76114344 -7.6889715 55.29914684 -8.50262451 57.8366394 C-9.00442655 59.40296863 -9.50422292 60.96994217 -10.00177002 62.53762817 C-11.70599529 67.87683432 -11.70599529 67.87683432 -12.81640625 70.09765625 C-17.76640625 70.09765625 -22.71640625 70.09765625 -27.81640625 70.09765625 C-25.63024058 61.71368005 -23.01978832 53.55603582 -20.18359375 45.37109375 C-19.7416473 44.08891415 -19.29992999 42.80665555 -18.85842896 41.52432251 C-17.94124631 38.86292135 -17.02161057 36.20238526 -16.10009766 33.54248047 C-14.91760476 30.12874098 -13.74100746 26.71300329 -12.56612968 23.29663658 C-11.65897383 20.66059015 -10.74899135 18.02552663 -9.83810806 15.39076614 C-9.19126506 13.51830048 -8.54665353 11.64506443 -7.90206909 9.77182007 C-7.31608444 8.08338486 -7.31608444 8.08338486 -6.71826172 6.36083984 C-6.37423309 5.36587494 -6.03020447 4.37091003 -5.67575073 3.34579468 C-4.26647719 -0.34101784 -4.32717206 0.110726 0 0 Z " fill="#000000" transform="translate(115.81640625,0.90234375)"/>
<path d="M0 0 C13.16019002 -1.35620279 13.16019002 -1.35620279 17.05078125 1.51171875 C18.63605695 3.9275896 19.803436 6.368261 21 9 C22.02355981 10.8803859 23.08350435 12.73646168 24.15258789 14.59130859 C24.87640342 15.85021623 25.58816839 17.11614009 26.28686523 18.38916016 C28.02905857 21.78496684 28.02905857 21.78496684 31 24 C31.2371875 23.34257812 31.474375 22.68515625 31.71875 22.0078125 C33.37145516 18.12798636 35.4132143 14.53520878 37.5 10.875 C37.90347656 10.15957031 38.30695313 9.44414062 38.72265625 8.70703125 C40.40667465 5.73359942 42.10272183 2.84591726 44 0 C46.7885289 -0.22107787 49.34653181 -0.28107535 52.125 -0.1875 C52.87910156 -0.17396484 53.63320313 -0.16042969 54.41015625 -0.14648438 C56.27374127 -0.11109985 58.13695978 -0.05729167 60 0 C57.42280876 5.71624218 54.48531569 10.87712248 50.828125 15.9765625 C38.14416953 34.11408537 35.61264181 47.97390083 37 70 C32.38 70 27.76 70 23 70 C23.07863281 68.01742187 23.15726562 66.03484375 23.23828125 63.9921875 C23.55255902 46.0693752 21.52792019 34.27153561 10.68603516 19.36132812 C8.13326411 15.78611793 5.91732692 12.0314916 3.6875 8.25 C3.30916016 7.63511719 2.93082031 7.02023438 2.54101562 6.38671875 C0 2.23044651 0 2.23044651 0 0 Z " fill="#000000" transform="translate(361,1)"/>
<path d="M0 0 C4.62 0 9.24 0 14 0 C14 23.1 14 46.2 14 70 C9.38 70 4.76 70 0 70 C0 46.9 0 23.8 0 0 Z " fill="#000000" transform="translate(308,1)"/>
<path d="M0 0 C3.7229703 2.6592645 6.55543557 5.73587115 8.625 9.875 C9.1322965 15.43031248 9.38760422 20.29330236 6.9375 25.375 C3.20766547 29.40725354 0.02647489 32.57056507 -5.64453125 33.078125 C-10.99192994 33.17669456 -14.84361245 33.03643318 -19.375 29.875 C-23.68847945 25.47947067 -25.54074543 22.343468 -25.6875 16.1875 C-25.61829014 10.40847667 -25.02854902 7.37167571 -21.375 2.875 C-14.94569456 -2.24220229 -7.72606205 -2.57535402 0 0 Z M-16.375 7.875 C-18.82587413 11.85767047 -19.5211674 13.91679152 -18.8125 18.5625 C-17.3246018 21.99113499 -16.4218028 23.73400343 -13.375 25.875 C-9.50084484 26.93158777 -7.34177224 27.29246983 -3.625 25.6875 C0.26389395 22.55477988 1.46681986 21.10089609 2.125 16 C1.99171264 12.89962011 1.39600928 10.94874209 -0.4375 8.4375 C-5.71563151 3.83317252 -10.73063617 3.77000812 -16.375 7.875 Z " fill="#000000" transform="translate(370.375,105.125)"/>
<path d="M0 0 C18.69230769 0 18.69230769 0 23.8125 4.4375 C27.9635421 9.30014932 28.89576018 12.74561064 29 19 C28.07370529 24.55776827 26.44561687 27.52082158 22 31 C14.21446593 35.10509978 9.78181915 34 0 34 C0 22.78 0 11.56 0 0 Z M7 7 C7 13.6 7 20.2 7 27 C15.37070236 27.84979323 15.37070236 27.84979323 19 24.9375 C21.40813237 21.40055558 22 19.27436594 22 15 C20.48483372 10.98480937 19.5944747 9.39631647 16 7 C13.03 7 10.06 7 7 7 Z " fill="#000000" transform="translate(258,104)"/>
<path d="M0 0 C3.80634156 1.83520039 5.4868474 2.97369479 7.375 6.75 C7.58125 7.4925 7.7875 8.235 8 9 C5.3125 10.25 5.3125 10.25 2 11 C0.29749607 9.71274093 -1.37064759 8.37868281 -3 7 C-5.75124253 7.13149826 -5.75124253 7.13149826 -8 8 C-7.9170576 9.95944066 -7.9170576 9.95944066 -7 12 C-4.55985344 13.25706236 -4.55985344 13.25706236 -1.625 14.0625 C4.75490664 16.02360587 4.75490664 16.02360587 7 19 C8.10589055 23.59369922 8.51260426 26.88846575 6 31 C2.22539425 34.42073646 -1.67745278 34.50486355 -6.55859375 34.359375 C-10.14138273 33.83198846 -12.30629441 32.3569924 -15 30 C-17 27 -17 27 -16.625 24.8125 C-16.41875 24.214375 -16.2125 23.61625 -16 23 C-13.8125 22.1875 -13.8125 22.1875 -11 22 C-8.5 24.5 -8.5 24.5 -6 27 C-2.78938212 27.41890218 -2.78938212 27.41890218 0 27 C0 25.35 0 23.7 0 22 C-1.10408203 21.76216797 -1.10408203 21.76216797 -2.23046875 21.51953125 C-12.8620025 18.97751327 -12.8620025 18.97751327 -16 14 C-16.74185241 10.81235293 -16.78819013 8.1815266 -16 5 C-11.66021811 -0.59603454 -6.82808974 -1.19713262 0 0 Z " fill="#000000" transform="translate(127,104)"/>
<path d="M0 0 C2.31 0 4.62 0 7 0 C7.0093457 0.67579102 7.01869141 1.35158203 7.02832031 2.04785156 C7.08207301 5.1159711 7.16570992 8.18257387 7.25 11.25 C7.26417969 12.31347656 7.27835938 13.37695312 7.29296875 14.47265625 C7.32519531 15.49746094 7.35742188 16.52226563 7.390625 17.578125 C7.41157227 18.52075195 7.43251953 19.46337891 7.45410156 20.43457031 C8.15254493 23.71687931 9.3815957 24.95891957 12 27 C14.6433774 27.08805146 14.6433774 27.08805146 17 26 C19.19164944 22.71252584 19.28679386 21.51505175 19.4140625 17.67578125 C19.45273438 16.64775391 19.49140625 15.61972656 19.53125 14.56054688 C19.57765625 12.95276367 19.57765625 12.95276367 19.625 11.3125 C19.66367188 10.22904297 19.70234375 9.14558594 19.7421875 8.02929688 C19.83650509 5.35303533 19.92210005 2.67678157 20 0 C22.31 0 24.62 0 27 0 C27.08729047 4.06236402 27.14048992 8.12448589 27.1875 12.1875 C27.21263672 13.33798828 27.23777344 14.48847656 27.26367188 15.67382812 C27.27333984 16.78564453 27.28300781 17.89746094 27.29296875 19.04296875 C27.3086792 20.06414795 27.32438965 21.08532715 27.34057617 22.13745117 C26.80131591 26.66994332 24.48125969 30.09895026 21 33 C15.99550161 34.66816613 10.96682135 34.8978967 6.125 32.6875 C1.28 28.84 1.28 28.84 0 25 C-0.08266486 23.08093083 -0.10740663 21.15910526 -0.09765625 19.23828125 C-0.09443359 18.12001953 -0.09121094 17.00175781 -0.08789062 15.84960938 C-0.07951172 14.68236328 -0.07113281 13.51511719 -0.0625 12.3125 C-0.05573242 10.54422852 -0.05573242 10.54422852 -0.04882812 8.74023438 C-0.03703273 5.82677211 -0.0205727 2.91341137 0 0 Z " fill="#000000" transform="translate(205,104)"/>
<path d="M0 0 C7.59 0 15.18 0 23 0 C23 2.31 23 4.62 23 7 C20.36 7 17.72 7 15 7 C15 15.91 15 24.82 15 34 C12.69 34 10.38 34 8 34 C8 25.09 8 16.18 8 7 C5.36 7 2.72 7 0 7 C0 4.69 0 2.38 0 0 Z " fill="#000000" transform="translate(158,104)"/>
<path d="M0 0 C2.31 0 4.62 0 7 0 C7 11.22 7 22.44 7 34 C4.69 34 2.38 34 0 34 C0 22.78 0 11.56 0 0 Z " fill="#000000" transform="translate(312,104)"/>
</svg>
