<?xml version="1.0" encoding="UTF-8"?>
<svg version="1.1" xmlns="http://www.w3.org/2000/svg" width="460" height="610">
<path d="M0 0 C0 49.5 0 99 0 150 C4.29 150 8.58 150 13 150 C61.36184362 153.81804029 107.23807616 172.27351491 144 204 C144.886875 204.75667969 145.77375 205.51335937 146.6875 206.29296875 C158.45599147 216.60975485 169.43082163 227.68392832 178.73242188 240.28369141 C179.98942094 241.98567589 181.2672632 243.67044998 182.546875 245.35546875 C189.30568598 254.39073927 194.80181016 263.9989519 200 274 C200.38542969 274.73283203 200.77085937 275.46566406 201.16796875 276.22070312 C212.21855377 297.47327876 219.0309373 320.43644039 223 344 C223.19480957 345.09127197 223.19480957 345.09127197 223.39355469 346.20458984 C227.50818181 370.11437684 226.52416294 397.25366186 222 421 C221.82839355 421.90814453 221.65678711 422.81628906 221.47998047 423.75195312 C217.51237684 444.04736257 211.01827972 463.39897122 202 482 C201.534729 482.96147949 201.534729 482.96147949 201.06005859 483.94238281 C190.65103755 505.11271329 176.28586666 524.0407754 160 541 C159.51273437 541.51449707 159.02546875 542.02899414 158.5234375 542.55908203 C150.93985064 550.54567367 142.81947284 557.41797358 134 564 C133.45682129 564.41459473 132.91364258 564.82918945 132.35400391 565.25634766 C90.93230428 596.83898536 41.47229106 610 -10 610 C-10 560.5 -10 511 -10 460 C-14.29 460 -18.58 460 -23 460 C-62.21994501 456.90368855 -100.39438998 444.15055029 -133 422 C-133.59039062 421.60490234 -134.18078125 421.20980469 -134.7890625 420.80273438 C-155.57235485 406.81750131 -174.1662407 389.17135711 -189 369 C-189.83556908 367.89425275 -190.67150577 366.7887832 -191.5078125 365.68359375 C-206.59062534 345.46212908 -217.35494892 322.95801498 -225 299 C-225.23847656 298.25669434 -225.47695312 297.51338867 -225.72265625 296.74755859 C-243.39514475 240.56166836 -237.07255842 176.42377842 -210.18408203 124.23779297 C-189.10396906 84.39855266 -157.2216812 51.2204518 -118 29 C-117.40783691 28.6587207 -116.81567383 28.31744141 -116.20556641 27.96582031 C-80.56526711 7.53009314 -40.67311668 0 0 0 Z M-35.875 12.625 C-37.04337402 12.80466309 -38.21174805 12.98432617 -39.41552734 13.16943359 C-84.82326722 20.49207061 -124.92492017 41.34007284 -158 73 C-158.49741699 73.47018555 -158.99483398 73.94037109 -159.50732422 74.42480469 C-166.96960368 81.50593977 -173.54071199 89.00962048 -179.69287109 97.25292969 C-180.94258103 98.92325549 -182.21398041 100.57497164 -183.48828125 102.2265625 C-195.31536167 117.85083255 -204.0860041 135.72475525 -211 154 C-211.27537598 154.7204248 -211.55075195 155.44084961 -211.83447266 156.18310547 C-220.64529338 179.64145095 -224.43694846 204.64579737 -224.3125 229.625 C-224.31034485 230.41025055 -224.3081897 231.1955011 -224.30596924 232.00454712 C-224.24958264 244.8676984 -223.58320564 257.36485512 -221 270 C-220.69400879 271.50046875 -220.69400879 271.50046875 -220.38183594 273.03125 C-211.63211215 314.6019901 -192.37811505 351.33484372 -163 382 C-162.44860352 382.58394531 -161.89720703 383.16789062 -161.32910156 383.76953125 C-125.72143276 421.33453443 -76.35705449 443.95600358 -25 449 C-20.05 449 -15.1 449 -10 449 C-10 403.13 -10 357.26 -10 310 C-18.415 308.515 -18.415 308.515 -27 307 C-40.64344962 302.49390655 -51.81015345 296.17257562 -62 286 C-62.69867188 285.31292969 -63.39734375 284.62585938 -64.1171875 283.91796875 C-79.72366061 267.55242593 -84.56154565 246.71085472 -84.28125 224.703125 C-84.02710825 217.06362411 -82.42427478 210.21700224 -80 203 C-79.649375 201.94683594 -79.29875 200.89367187 -78.9375 199.80859375 C-72.03192245 181.41769798 -57.71402796 166.50746028 -40.06835938 158.07714844 C-30.18885317 153.7086928 -20.84640606 152.03370114 -10 150 C-10 104.13 -10 58.26 -10 11 C-18.97824761 11 -27.10810706 11.27295663 -35.875 12.625 Z M-51 178 C-51.75023437 178.65613281 -52.50046875 179.31226563 -53.2734375 179.98828125 C-64.45033017 190.42131929 -73.11794662 205.8801242 -74.16113281 221.39672852 C-74.52687302 243.01580219 -71.01068338 260.93205062 -56.32421875 277.61328125 C-46.13387068 288.07765549 -31.6846659 296.82113149 -17 299 C-14.69 299 -12.38 299 -10 299 C-10 253.46 -10 207.92 -10 161 C-25.25196421 161 -39.6929264 168.02921692 -51 178 Z M0 161 C0 206.87 0 252.74 0 300 C5.61 300.99 11.22 301.98 17 303 C30.65065336 307.50847267 41.79999078 313.83359872 52 324 C52.77214844 324.74894531 53.54429687 325.49789062 54.33984375 326.26953125 C70.29413692 342.71472575 74.56341809 363.65201385 74.26953125 385.8671875 C73.70859527 403.90003594 66.1303935 420.74287034 54 434 C53.40960938 434.68191406 52.81921875 435.36382812 52.2109375 436.06640625 C38.07794857 451.43227294 20.01339373 455.99732125 0 460 C0 505.87 0 551.74 0 599 C8.97824761 599 17.10810706 598.72704337 25.875 597.375 C27.04337402 597.19533691 28.21174805 597.01567383 29.41552734 596.83056641 C74.08660294 589.62672687 114.42926735 569.27473496 147 538 C147.56364258 537.46358887 148.12728516 536.92717773 148.70800781 536.37451172 C157.29653044 528.16301148 165.04872918 519.64256498 172 510 C172.47646973 509.34080566 172.95293945 508.68161133 173.44384766 508.00244141 C206.83861689 461.20575161 221.20311568 402.63923033 212.3125 345.6875 C211.62965655 341.77000635 210.8515454 337.8840826 210 334 C209.72712158 332.72987061 209.72712158 332.72987061 209.44873047 331.43408203 C201.1279602 293.94971837 182.68666517 259.58479338 156.46484375 231.65234375 C154.50451132 229.54288936 152.63945317 227.41054058 150.8125 225.1875 C147.56710327 221.36289649 143.83494689 218.21745544 140 215 C138.70449219 213.87271484 138.70449219 213.87271484 137.3828125 212.72265625 C124.66821455 201.81704581 110.84028682 192.74546686 96 185 C95.30132812 184.63165039 94.60265625 184.26330078 93.8828125 183.88378906 C71.93181796 172.46253604 48.40609301 165.6906342 24 162 C23.27071289 161.8865625 22.54142578 161.773125 21.79003906 161.65625 C14.44346231 160.66985648 7.57840347 161 0 161 Z M0 311 C0 356.54 0 402.08 0 449 C18.61164495 447.30803228 31.7705855 440.96830763 45 428 C45.70125 427.33484375 46.4025 426.6696875 47.125 425.984375 C59.83599015 412.97547102 64.98187221 394.78336344 65 377 C63.89771824 358.46162489 55.68087497 340.64444504 42 328 C29.68946025 318.22030725 15.9856102 311 0 311 Z " fill="#FFFFFF" transform="translate(235,0)"/>
</svg>
