<?xml version="1.0" encoding="UTF-8"?>
<svg version="1.1" xmlns="http://www.w3.org/2000/svg" width="708" height="172">
<path d="M0 0 C0 14.19 0 28.38 0 43 C3.63 43 7.26 43 11 43 C27.63813542 45.84367283 42.43498758 54.85387157 52.57421875 68.29296875 C59.54830905 78.17762826 64.39106981 89.82139622 65 102 C65.05027344 102.79019531 65.10054687 103.58039063 65.15234375 104.39453125 C65.74744446 120.65268273 60.88482497 135.28220458 51 148 C50.42636719 148.763125 49.85273437 149.52625 49.26171875 150.3125 C39.64576927 162.17285738 24.9089652 169.5492112 10 172 C6.37 172 2.74 172 -1 172 C-1 157.81 -1 143.62 -1 129 C-4.3 129 -7.6 129 -11 129 C-28.40175473 125.94473009 -43.62715005 116.38988086 -53.78222656 101.99462891 C-63.84350803 86.80064807 -67.3191929 68.84738916 -63.8125 50.9375 C-59.49481891 32.97037548 -49.8940849 18.68891805 -34.14038086 8.80371094 C-23.11774304 2.22457875 -12.95190199 0 0 0 Z M-14.78125 49.61328125 C-18.90679896 54.17363072 -20.73982926 58.19015601 -21.3125 64.375 C-20.60159625 72.62148352 -17.71141868 76.84768478 -11.64453125 82.43359375 C-8.35219442 84.62125292 -8.35219442 84.62125292 -1 85 C-1 71.47 -1 57.94 -1 44 C-6.58588802 44 -10.62660576 45.85041267 -14.78125 49.61328125 Z M0 87 C0 100.53 0 114.06 0 128 C8.41628369 126.94796454 11.12498588 126.00569658 16.75 120.125 C20.5231554 114.88450639 21.55372387 110.42319689 21 104 C19.81501373 97.59849806 16.40197552 93.92748991 11.7421875 89.56640625 C8.21262667 87.3095374 8.21262667 87.3095374 0 87 Z " fill="#FFFFFF" transform="translate(65,0)"/>
<path d="M0 0 C13 0 13 0 15.88671875 1.9140625 C16.48097656 2.80867187 17.07523437 3.70328125 17.6875 4.625 C18.38617188 5.61886719 19.08484375 6.61273438 19.8046875 7.63671875 C20.1562793 8.17731934 20.50787109 8.71791992 20.87011719 9.27490234 C22.50129642 11.76537608 24.24603536 14.16996875 25.9855957 16.58544922 C26.85042478 17.79255011 27.70623248 19.00618159 28.55151367 20.22705078 C30.799686 23.45986801 33.11693623 26.31485823 36 29 C37.27125805 27.32434853 38.54163824 25.64802533 39.80810547 23.96875 C40.90223965 22.52083375 42.00161077 21.07686125 43.10595703 19.63671875 C45.71612274 16.20001322 48.19009446 12.80696004 50.30859375 9.04296875 C50.66187744 8.44315186 51.01516113 7.84333496 51.37915039 7.2253418 C52.31838014 5.59809574 53.20407206 3.94028453 54.0859375 2.28125 C57 0 57 0 71 0 C71 23.1 71 46.2 71 70 C66.38 70 61.76 70 57 70 C56.67 55.48 56.34 40.96 56 26 C53.793125 28.990625 51.58625 31.98125 49.3125 35.0625 C48.28443237 36.45480835 48.28443237 36.45480835 47.2355957 37.87524414 C43.78403919 42.55617696 40.36579017 47.25700315 37 52 C34.43055183 51.62614859 33.24298647 51.25641637 31.43188477 49.34521484 C30.94002686 48.64090332 30.44816895 47.9365918 29.94140625 47.2109375 C29.39033203 46.43363281 28.83925781 45.65632813 28.27148438 44.85546875 C27.70751953 44.03691406 27.14355469 43.21835937 26.5625 42.375 C26.00240234 41.57964844 25.44230469 40.78429688 24.86523438 39.96484375 C23.80436253 38.45709357 22.74789809 36.94622463 21.69750977 35.43115234 C19.49011739 32.26975248 17.24112591 29.13757627 15 26 C14.67 40.52 14.34 55.04 14 70 C9.38 70 4.76 70 0 70 C0 46.9 0 23.8 0 0 Z " fill="#FFFFFF" transform="translate(382,8)"/>
<path d="M0 0 C5.84781696 4.14103785 9.84796023 8.11347274 12 15 C10.37750059 15.83819158 8.75191503 16.6704116 7.125 17.5 C6.22007812 17.9640625 5.31515625 18.428125 4.3828125 18.90625 C2 20 2 20 0 20 C-1.078125 18.57421875 -1.078125 18.57421875 -2.25 16.6875 C-4.7171 13.12391112 -6.80590186 11.42599337 -11 10 C-14.82919777 9.59692655 -17.28943082 9.72195119 -20.875 11.125 C-23.21371092 12.90058573 -23.21371092 12.90058573 -24.125 15.875 C-24.29954134 19.11980074 -24.29954134 19.11980074 -22.0390625 21.51171875 C-18.27561198 24.59310433 -14.86665856 25.63050295 -10.25 26.9375 C-2.35830889 29.37248276 4.30880528 31.96275577 10 38.1875 C12.29879229 44.65285331 13.0755907 51.76210054 10.2109375 58.1484375 C6.49362396 63.83232982 1.52350985 67.30724102 -5 69 C-15.92703926 70.04413931 -25.11760791 69.07886551 -33.875 62.1875 C-37.50796774 58.78697332 -40.75957723 54.88507318 -41.1875 49.75 C-39.16599794 46.77094433 -36.31297266 46.12304158 -33 45 C-31.68 45 -30.36 45 -29 45 C-27.5078125 46.64453125 -27.5078125 46.64453125 -26.125 48.8125 C-23.46024104 52.56708557 -21.52225059 54.58125472 -17 56 C-12.18067802 56.51305173 -8.22191117 56.60873551 -4 54 C-2.58558126 51.17116253 -2.68099668 49.12623255 -3 46 C-5.61006343 43.61305962 -8.13580349 42.4330593 -11.484375 41.38671875 C-12.33773437 41.10763672 -13.19109375 40.82855469 -14.0703125 40.54101562 C-15.8392068 39.97759958 -17.61002311 39.42017828 -19.3828125 38.86914062 C-26.45122517 36.53953615 -32.35675667 33.38665551 -37 27.4375 C-38.88569872 20.95541066 -39.58413783 13.08179543 -36.3125 6.9375 C-27.71647397 -3.9817763 -12.28220218 -6.63902821 0 0 Z " fill="#FFFFFF" transform="translate(234,10)"/>
<path d="M0 0 C5.94 0 11.88 0 18 0 C18.4125 1.21244385 18.825 2.4248877 19.25 3.67407227 C20.81785076 8.28167591 22.38665067 12.88895591 23.95578003 17.49612427 C24.64976927 19.53403949 25.34355716 21.57202329 26.03713989 23.6100769 C32.37448339 42.23515484 32.37448339 42.23515484 38.91601562 60.78930664 C41 66.67679878 41 66.67679878 41 70 C36.05 70 31.1 70 26 70 C23.71571602 63.07842211 21.43720166 56.15498235 19.1640625 49.22973633 C18.38961369 46.87309249 17.61357823 44.51696946 16.8359375 42.16137695 C15.71979993 38.77950859 14.60934271 35.39582115 13.5 32.01171875 C13.15001953 30.95538742 12.80003906 29.89905609 12.43945312 28.81071472 C12.11912109 27.82992447 11.79878906 26.84913422 11.46875 25.83862305 C11.18451172 24.97480515 10.90027344 24.11098724 10.60742188 23.22099304 C10 21 10 21 10 18 C9.34 18 8.68 18 8 18 C7.73646729 19.27810547 7.47293457 20.55621094 7.20141602 21.87304688 C6.04977306 27.04462083 4.46750637 32.01392946 2.77734375 37.03125 C2.47180069 37.94837769 2.16625763 38.86550537 1.85145569 39.8104248 C1.21066937 41.73045959 0.56769138 43.64976422 -0.07739258 45.56835938 C-1.06842657 48.51763724 -2.0512951 51.46954782 -3.03320312 54.421875 C-3.65837685 56.29182631 -4.28401115 58.16162372 -4.91015625 60.03125 C-5.20495377 60.91655396 -5.49975128 61.80185791 -5.80348206 62.71398926 C-6.07724167 63.52573608 -6.35100128 64.33748291 -6.63305664 65.17382812 C-6.87351212 65.89058716 -7.11396759 66.60734619 -7.36170959 67.3458252 C-8 69 -8 69 -9 70 C-11.53049402 70.07313567 -14.03304837 70.09247527 -16.5625 70.0625 C-17.27341797 70.05798828 -17.98433594 70.05347656 -18.71679688 70.04882812 C-20.47790013 70.03700864 -22.23896036 70.01907263 -24 70 C-16.27792021 46.56477071 -8.29528336 23.23855976 0 0 Z " fill="#FFFFFF" transform="translate(305,8)"/>
<path d="M0 0 C1.58206422 0.00574487 3.16410406 0.01876032 4.74609375 0.03515625 C6.25121815 0.04664511 7.75634534 0.05777129 9.26147461 0.06860352 C10.55577393 0.07819092 11.85007324 0.08777832 13.18359375 0.09765625 C18.00528237 12.97672661 22.58993806 25.9232682 27.01049805 38.9453125 C28.00972444 41.88779539 29.01341932 44.82872839 30.01757812 47.76953125 C30.66302074 49.66527597 31.30821255 51.56110611 31.953125 53.45703125 C32.39686211 54.75710114 32.39686211 54.75710114 32.8495636 56.08343506 C33.12712997 56.90249329 33.40469635 57.72155151 33.69067383 58.56542969 C33.93159256 59.27423279 34.17251129 59.98303589 34.42073059 60.71331787 C35.41441553 63.81909263 36.28776498 66.96225557 37.18359375 70.09765625 C32.23359375 70.09765625 27.28359375 70.09765625 22.18359375 70.09765625 C21.78043945 68.9080127 21.37728516 67.71836914 20.96191406 66.49267578 C19.45130215 62.03748014 17.9371043 57.58350996 16.421875 53.12988281 C15.7692183 51.20996285 15.11750694 49.28972123 14.46679688 47.36914062 C13.52598421 44.59287749 12.58166592 41.81782697 11.63671875 39.04296875 C11.35113098 38.19775665 11.06554321 37.35254456 10.77130127 36.48171997 C8.75834956 30.58571622 6.50482022 24.90072243 4.18359375 19.09765625 C-1.42640625 35.92765625 -7.03640625 52.75765625 -12.81640625 70.09765625 C-17.76640625 70.09765625 -22.71640625 70.09765625 -27.81640625 70.09765625 C-27.17612047 66.2559416 -26.68229863 63.32183709 -25.43701172 59.78662109 C-25.15936981 58.99073578 -24.88172791 58.19485046 -24.59567261 57.37484741 C-24.29468658 56.5279837 -23.99370056 55.68112 -23.68359375 54.80859375 C-23.36866974 53.91008698 -23.05374573 53.0115802 -22.72927856 52.08584595 C-21.72123746 49.21314764 -20.70647309 46.34287857 -19.69140625 43.47265625 C-19.03210009 41.59781514 -18.37324203 39.72281638 -17.71484375 37.84765625 C-16.40671338 34.12346849 -15.09468493 30.40068602 -13.78027344 26.67871094 C-12.44086039 22.88134047 -11.11453926 19.079723 -9.79785156 15.27441406 C-9.47632111 14.34738678 -9.15479065 13.4203595 -8.82351685 12.46524048 C-8.21085831 10.69715869 -7.60047303 8.92828713 -6.99264526 7.15853882 C-4.54867649 0.11639397 -4.54867649 0.11639397 0 0 Z " fill="#FFFFFF" transform="translate(670.81640625,7.90234375)"/>
<path d="M0 0 C5.40101983 -1.37278809 10.78285766 -2.46581934 16 0 C21.10024128 5.3341299 29 16.35908167 29 24 C31.50922495 21.69871674 33.15777033 19.29507503 34.8828125 16.3671875 C35.41003906 15.47902344 35.93726563 14.59085938 36.48046875 13.67578125 C37.29451172 12.28939453 37.29451172 12.28939453 38.125 10.875 C39.20972002 9.03834292 40.29559527 7.20236745 41.3828125 5.3671875 C41.86121582 4.55362793 42.33961914 3.74006836 42.83251953 2.90185547 C44 1 44 1 45 0 C47.53049402 -0.07313567 50.03304837 -0.09247527 52.5625 -0.0625 C53.62887695 -0.05573242 53.62887695 -0.05573242 54.71679688 -0.04882812 C56.47790013 -0.03700864 58.23896036 -0.01907263 60 0 C58.42835905 6.06633387 55.14176575 10.90026727 51.8125 16.125 C50.1157771 18.80966307 48.42542768 21.49664953 46.76049805 24.20117188 C45.57051655 26.09299656 44.330285 27.95398612 43.04614258 29.78320312 C37.47777964 38.16736578 36.98012586 45.54339234 37.0625 55.25 C37.04935478 56.68883409 37.03309697 58.12764324 37.01367188 59.56640625 C36.96761911 63.0463937 36.98502673 66.51764493 37 70 C32.38 70 27.76 70 23 70 C23.12503906 68.01484375 23.25007812 66.0296875 23.37890625 63.984375 C24.07817497 42.75394576 19.38365527 29.91501213 6.99023438 12.76171875 C0 3.06182532 0 3.06182532 0 0 Z " fill="#FFFFFF" transform="translate(554,8)"/>
<path d="M0 0 C4.29 0 8.58 0 13 0 C13 23.1 13 46.2 13 70 C8.71 70 4.42 70 0 70 C0 46.9 0 23.8 0 0 Z " fill="#FFFFFF" transform="translate(502,8)"/>
<path d="M0 0 C4.42619817 3.04915874 7.98154423 6.06146975 9.515625 11.37109375 C10.30128473 16.981729 9.74116028 20.95877753 6.8125 25.9375 C3.29049001 30.00135768 0.41624807 32.62563045 -4.9921875 33.2734375 C-11.22624265 33.35275118 -15.39068086 33.37455771 -20.1875 28.9375 C-24.70483481 23.93180467 -25.55114924 20.08620863 -25.46484375 13.5078125 C-25.016448 9.35225754 -23.72803936 7.28031495 -21.1875 3.9375 C-14.57201591 -1.19287542 -7.99686632 -2.66562211 0 0 Z M-15.1875 7.9375 C-17.58148482 10.81028179 -18.14774433 12.66417978 -18.6875 16.375 C-18.03122778 21.05093956 -16.7295773 22.83818236 -13.1875 25.9375 C-10.43775064 26.99900489 -8.1139267 27.28111175 -5.1875 26.9375 C-1.69145947 25.25422123 0.20197566 23.91964784 2.25 20.625 C3.00903674 16.99849111 2.77256591 14.52174608 1.8125 10.9375 C-0.63060404 7.72656327 -2.30231331 6.23884015 -6.125 4.9375 C-9.99795073 4.9375 -11.97347162 5.79481441 -15.1875 7.9375 Z " fill="#FFFFFF" transform="translate(563.1875,112.0625)"/>
<path d="M0 0 C2.660625 -0.0825 5.32125 -0.165 8.0625 -0.25 C8.8862915 -0.28641602 9.71008301 -0.32283203 10.55883789 -0.36035156 C16.19912711 -0.44410152 19.37868291 0.74407205 24 4 C27.76544339 8.82749152 28.59765651 12.54439529 28.3203125 18.63671875 C27.68915649 23.29341856 25.99418314 26.05814229 22.625 29.25 C14.70322381 34.53118413 10.799344 33 0 33 C0 22.11 0 11.22 0 0 Z M7 6 C7 12.93 7 19.86 7 27 C14.86274723 26.48155822 14.86274723 26.48155822 20 22 C20.98915859 18.93942694 21.2992566 16.20315401 21 13 C18.8052785 8.70737382 18.8052785 8.70737382 15 6 C12.36 6 9.72 6 7 6 Z " fill="#FFFFFF" transform="translate(452,112)"/>
<path d="M0 0 C3.75319208 1.84247611 5.5026965 3.005393 7.375 6.75 C7.58125 7.4925 7.7875 8.235 8 9 C5 11 5 11 3.0625 10.8125 C1 10 1 10 -0.9375 8.375 C-2.97331657 6.6974791 -2.97331657 6.6974791 -5.75 7.3125 C-6.4925 7.539375 -7.235 7.76625 -8 8 C-7.91302931 9.96445173 -7.91302931 9.96445173 -7 12 C-4.58915645 13.18420407 -4.58915645 13.18420407 -1.6875 13.9375 C1.82318703 15.11380812 3.85096391 15.87175964 6.6875 18.3125 C8.41934727 21.85866345 8.55752161 24.09734872 8 28 C6.20437595 30.75329021 4.94745078 32.52627461 2 34 C-3.36762727 34.5350086 -7.69931437 34.66175234 -12.5625 32.1875 C-15 30 -15 30 -17 27 C-17 26.01 -17 25.02 -17 24 C-15.02 23.34 -13.04 22.68 -11 22 C-10.278125 22.825 -9.55625 23.65 -8.8125 24.5 C-6.27082634 27.24407806 -6.27082634 27.24407806 -3.1875 27.3125 C-2.465625 27.209375 -1.74375 27.10625 -1 27 C-0.67 25.68 -0.34 24.36 0 23 C-0.81984375 22.69707031 -1.6396875 22.39414063 -2.484375 22.08203125 C-3.56203125 21.66308594 -4.6396875 21.24414062 -5.75 20.8125 C-6.81734375 20.40644531 -7.8846875 20.00039062 -8.984375 19.58203125 C-12.35126412 17.81572284 -13.9363012 16.16696498 -16 13 C-16.52022372 9.43275163 -16.24128949 7.53083688 -14.75 4.25 C-10.93003189 -0.66138758 -5.82744114 -0.81806366 0 0 Z " fill="#FFFFFF" transform="translate(320,111)"/>
<path d="M0 0 C2.31 0 4.62 0 7 0 C7.01458252 0.71655762 7.02916504 1.43311523 7.04418945 2.17138672 C7.11849 5.40647983 7.21520861 8.64052019 7.3125 11.875 C7.33505859 13.00292969 7.35761719 14.13085938 7.38085938 15.29296875 C7.41630859 16.36933594 7.45175781 17.44570312 7.48828125 18.5546875 C7.51446533 19.54968262 7.54064941 20.54467773 7.56762695 21.56982422 C7.78165161 22.77276123 7.78165161 22.77276123 8 24 C10.83573263 26.33775029 10.83573263 26.33775029 14.125 25.75 C15.07375 25.5025 16.0225 25.255 17 25 C18.25838557 22.48322887 18.20818973 20.58706712 18.31640625 17.7734375 C18.35830078 16.7421875 18.40019531 15.7109375 18.44335938 14.6484375 C18.48267578 13.56820312 18.52199219 12.48796875 18.5625 11.375 C18.60568359 10.28703125 18.64886719 9.1990625 18.69335938 8.078125 C18.7996453 5.3855483 18.90168057 2.69287747 19 0 C21.31 0 23.62 0 26 0 C26.11662261 4.04142215 26.1873935 8.08240865 26.25 12.125 C26.30027344 13.83816406 26.30027344 13.83816406 26.3515625 15.5859375 C26.47673857 26.35107918 26.47673857 26.35107918 22 31 C17.79498416 33.93589637 12.92667543 33.51986023 8 33 C4.21768768 31.3905054 2.13309816 29.48582198 0 26 C-0.34057617 23.15917969 -0.34057617 23.15917969 -0.29296875 19.921875 C-0.2784668 18.18164062 -0.2784668 18.18164062 -0.26367188 16.40625 C-0.23853516 15.1996875 -0.21339844 13.993125 -0.1875 12.75 C-0.17396484 11.52796875 -0.16042969 10.3059375 -0.14648438 9.046875 C-0.1111398 6.03080502 -0.0617956 3.01562513 0 0 Z " fill="#FFFFFF" transform="translate(399,112)"/>
<path d="M0 0 C7.92 0 15.84 0 24 0 C24 1.98 24 3.96 24 6 C21.36 6 18.72 6 16 6 C16 14.91 16 23.82 16 33 C13.69 33 11.38 33 9 33 C9 24.09 9 15.18 9 6 C6.03 6 3.06 6 0 6 C0 4.02 0 2.04 0 0 Z " fill="#FFFFFF" transform="translate(351,112)"/>
<path d="M0 0 C2.31 0 4.62 0 7 0 C7 10.89 7 21.78 7 33 C4.69 33 2.38 33 0 33 C0 22.11 0 11.22 0 0 Z " fill="#FFFFFF" transform="translate(505,112)"/>
</svg>
